<svg width="506" height="487" viewBox="0 0 506 487" fill="none" xmlns="http://www.w3.org/2000/svg">
<path fill-rule="evenodd" clip-rule="evenodd" d="M231.233 5.7455C242.68 -1.90875 257.61 -1.91572 269.064 5.72792L329.056 45.7621C333.044 48.4233 336.425 51.8965 338.978 55.9545L390.212 137.398C396.678 147.675 397.182 160.618 391.536 171.368L353.474 243.823C350.807 248.901 346.899 253.223 342.115 256.388L269.084 304.699C257.701 312.229 242.921 312.235 231.532 304.713L158.357 256.39C153.563 253.224 149.647 248.896 146.975 243.81L108.92 171.368C103.274 160.618 103.778 147.675 110.244 137.398L161.487 55.9408C164.034 51.8918 167.406 48.425 171.382 45.766L231.233 5.7455ZM267.017 153.451C261.348 149.634 255.258 148.426 248.522 148.763C237.885 149.802 228.988 156.622 222.392 164.565C217.986 169.869 214.59 175.903 209.987 181.095C206.535 184.996 202.521 188.224 198.901 191.901C191.435 199.479 185.457 209.33 186.496 220.332C187.254 228.135 190.734 235.488 196.88 240.512C203.42 245.844 212.232 247.219 220.399 246.349C227.92 245.535 235.246 243.543 242.74 242.561C246.613 242.056 250.486 242.083 254.387 242.139C258.372 242.504 262.275 242.981 266.232 243.767C274.399 245.395 282.903 247.641 291.239 246.013C298.929 244.526 305.637 241.269 310.211 234.646C314.534 228.415 316.778 220.837 315.431 213.231C314.028 205.317 309.79 198.469 304.121 192.828C299.518 188.253 294.354 184.379 290.116 179.383C287.001 175.679 284.558 171.524 281.696 167.623C277.711 162.151 272.658 157.239 267.017 153.451ZM172.406 113.821C169.178 114.158 166.513 115.14 164.295 117.75C159.861 123.139 159.439 130.885 160.225 137.508C161.741 150.166 168.281 161.87 178.3 169.701C182.959 173.321 188.208 175.342 194.158 174.949C198.367 174.191 201.118 172.535 203.56 168.999C207.686 163.021 207.208 154.685 205.833 147.893C203.475 136.162 196.234 125.131 186.214 118.564C181.949 115.757 177.542 114.073 172.406 113.821ZM336.341 116.74C333.703 114.494 330.643 113.793 327.248 114.074L326.743 114.129C316.695 116.038 307.882 123.56 302.269 131.923C296.684 140.203 292.866 151.794 294.663 161.814C295.42 166.052 297.722 170.234 301.342 172.676C303.756 174.332 306.675 175.202 309.622 174.921C318.266 174.276 325.227 169.335 330.728 162.88C338.081 154.264 342.908 141.41 341.926 130.043C341.477 125.048 340.354 120.136 336.341 116.74ZM286.776 71.4975C285.401 71.3572 284.11 71.4124 282.735 71.6088C273.305 74.5277 266.653 82.1343 262.134 90.6664C256.521 101.303 254.725 113.905 258.374 125.468C259.889 130.295 262.976 135.88 267.55 138.378C269.964 139.697 272.182 140.147 274.904 140.147C282.987 138.238 288.853 132.289 293.091 125.412C297.47 118.396 299.462 110.452 300.445 102.37C301.511 93.6973 300.079 82.92 294.466 75.9877C292.558 73.6583 289.835 71.8344 286.776 71.4975ZM221.326 72.4232C218.856 71.469 216.442 71.3001 213.832 71.6088C209.173 73.1524 206.086 76.1841 203.953 80.5062C198.817 90.9749 199.546 104.784 203.307 115.561C206.451 124.542 212.513 134.309 221.381 138.519C224.721 140.119 227.444 140.428 231.008 139.53C236.874 137.004 240.158 132.317 242.459 126.507C246.529 116.179 245.238 103.408 240.776 93.3607C236.959 84.8007 230.307 75.9036 221.326 72.4232Z" fill="#F1662E"/>
<path d="M24.3591 486.577C8.25731 486.577 0 478.939 0 466.76C0 453.961 9.70234 446.323 24.7719 446.323C35.5064 446.323 44.1766 449.007 52.2275 452.723C54.2918 447.149 55.324 440.749 55.324 433.524C55.324 417.216 51.4018 402.146 42.1123 384.6L60.4848 378.82C70.6 397.811 74.9351 415.358 74.9351 433.524C74.9351 443.433 72.8708 452.929 68.7421 461.186C76.5866 465.108 84.2246 468.205 93.5141 468.205C118.492 468.205 134.388 451.69 134.388 419.693C134.388 374.897 103.216 354.667 68.5357 354.667C38.1901 354.667 23.3269 369.737 23.3269 394.302C23.3269 404.211 27.662 414.12 34.2678 421.345L18.3725 432.492C8.46375 422.17 2.68363 408.133 2.68363 394.302C2.68363 360.241 28.9006 336.294 68.9486 336.294C111.061 336.294 155.031 363.75 155.031 419.693C155.031 462.012 127.163 486.577 93.5141 486.577C77.6187 486.577 67.5035 480.797 58.6269 474.604C50.3696 482.036 39.0158 486.577 24.3591 486.577ZM17.1339 465.934C17.1339 469.444 19.6111 471.301 25.1848 471.301C32.8228 471.301 39.2222 469.031 43.9702 464.902C38.6029 462.012 32.8228 459.948 25.5977 459.948C20.024 459.948 17.1339 462.012 17.1339 465.934Z" fill="#F1662E"/>
<path d="M218.464 486.577C180.687 486.577 159.011 464.076 159.011 431.666C159.011 424.028 160.043 417.01 161.282 409.784L179.242 408.133C177.797 414.532 177.177 420.313 177.177 426.918C177.177 455.2 194.105 470.063 218.464 470.063C245.3 470.063 261.608 453.961 261.608 429.396C261.608 406.275 248.19 391.412 227.547 391.412C211.858 391.412 203.188 399.876 203.188 412.675C203.188 421.138 206.904 429.396 212.89 436.621L196.376 441.162C189.357 433.111 185.022 423.409 185.022 412.055C185.022 392.857 200.091 374.897 228.373 374.897C262.847 374.897 281.013 398.224 281.013 429.602C281.013 462.425 256.654 486.577 218.464 486.577Z" fill="#F1662E"/>
<path d="M342.211 486.577C313.104 486.577 296.589 470.476 296.589 421.758V396.16L274.088 394.921V377.787L296.589 379.026V355.493H315.787V379.439C334.366 379.645 352.532 379.026 373.589 377.787V394.921C352.532 396.16 334.366 396.779 315.787 396.573V421.964C315.787 456.232 324.664 470.063 342.83 470.063C356.455 470.063 364.918 461.599 364.918 449.007C364.918 437.034 359.345 427.538 348.817 419.28L362.235 408.339C376.066 419.28 384.323 433.318 384.323 449.007C384.323 471.508 368.015 486.577 342.211 486.577Z" fill="#F1662E"/>
<path d="M447.161 486.577C416.815 486.577 398.856 470.063 398.856 437.653L399.062 432.905L385.231 429.808L388.121 413.913L402.159 417.216C410.829 392.444 434.568 374.897 463.882 374.897C489.273 374.897 505.375 386.87 505.375 405.037C505.375 426.506 482.667 439.098 445.716 439.098C436.426 439.098 427.963 438.272 418.26 436.621V437.653C418.26 459.948 429.201 470.063 448.193 470.063C464.914 470.063 479.364 462.425 491.131 449.832L501.866 461.393C488.447 477.288 470.281 486.577 447.161 486.577ZM420.944 420.725C429.408 421.964 437.459 422.583 445.716 422.583C471.107 422.583 485.97 416.597 485.97 405.243C485.97 396.16 477.919 391.412 463.676 391.412C443.032 391.412 427.137 402.972 420.944 420.725Z" fill="#F1662E"/>
</svg>
